M48
; DRILL file {KiCad (5.1.10)-1} date 05/13/21 13:34:40
; FORMAT={-:-/ absolute / inch / decimal}
; #@! TF.CreationDate,2021-05-13T13:34:40-04:00
; #@! TF.GenerationSoftware,Kicad,Pcbnew,(5.1.10)-1
; #@! TF.FileFunction,Plated,1,2,PTH
FMAT,2
INCH
T1C0.0118
T2C0.0157
T3C0.0394
T4C0.0433
%
G90
G05
T1
X4.15Y-3.05
X4.15Y-3.125
X4.15Y-3.2
X4.15Y-3.275
X4.15Y-3.325
X4.15Y-3.38
X4.15Y-3.72
X4.15Y-3.775
X4.15Y-3.825
X4.15Y-3.9
X4.15Y-3.975
X4.15Y-4.05
X4.15Y-4.125
X4.15Y-4.2
X4.15Y-4.275
X4.15Y-4.35
X4.15Y-4.425
X4.15Y-4.5
X4.15Y-4.575
X4.15Y-4.65
X4.225Y-3.05
X4.225Y-3.125
X4.225Y-3.275
X4.225Y-3.325
X4.225Y-3.775
X4.225Y-3.825
X4.225Y-3.975
X4.225Y-4.275
X4.225Y-4.35
X4.225Y-4.575
X4.225Y-4.65
X4.24Y-3.38
X4.24Y-3.72
X4.3Y-3.05
X4.3Y-3.275
X4.3Y-3.325
X4.3Y-3.775
X4.3Y-3.825
X4.3Y-4.275
X4.3Y-4.65
X4.375Y-3.05
X4.375Y-3.125
X4.375Y-3.275
X4.375Y-3.325
X4.375Y-3.775
X4.375Y-3.825
X4.375Y-3.975
X4.375Y-4.65
X4.45Y-3.05
X4.45Y-3.325
X4.45Y-3.775
X4.45Y-4.65
X4.525Y-3.05
X4.525Y-3.125
X4.525Y-3.275
X4.525Y-3.325
X4.525Y-3.775
X4.525Y-3.825
X4.525Y-3.975
X4.525Y-4.65
X4.6Y-3.05
X4.6Y-3.2
X4.6Y-3.325
X4.6Y-3.775
X4.6Y-4.65
X4.675Y-3.05
X4.675Y-3.125
X4.675Y-3.275
X4.675Y-3.325
X4.675Y-3.775
X4.675Y-3.825
X4.675Y-3.975
X4.675Y-4.65
X4.75Y-3.05
X4.75Y-3.275
X4.75Y-3.325
X4.75Y-3.775
X4.75Y-4.575
X4.75Y-4.65
X4.8Y-3.675
X4.825Y-3.05
X4.825Y-3.125
X4.825Y-3.275
X4.825Y-3.35
X4.825Y-3.425
X4.825Y-3.75
X4.825Y-3.825
X4.825Y-3.975
X4.825Y-4.575
X4.825Y-4.65
X4.875Y-3.675
X4.9Y-3.05
X4.9Y-3.275
X4.9Y-3.35
X4.9Y-3.425
X4.9Y-3.75
X4.9Y-4.575
X4.9Y-4.65
X4.975Y-3.05
X4.975Y-3.125
X4.975Y-3.275
X4.975Y-3.35
X4.975Y-3.425
X4.975Y-3.8
X4.975Y-3.85
X4.975Y-3.975
X4.975Y-4.425
X4.975Y-4.5
X4.975Y-4.575
X4.975Y-4.65
X5.05Y-3.05
X5.05Y-3.275
X5.05Y-3.35
X5.05Y-3.425
X5.05Y-3.8
X5.05Y-4.65
X5.125Y-3.05
X5.125Y-3.125
X5.125Y-3.275
X5.125Y-3.35
X5.125Y-3.425
X5.125Y-3.8
X5.125Y-3.85
X5.125Y-3.975
X5.125Y-4.3
X5.125Y-4.4
X5.125Y-4.45
X5.125Y-4.65
X5.175Y-4.25
X5.175Y-4.3
X5.175Y-4.4
X5.2Y-3.05
X5.2Y-3.275
X5.2Y-3.35
X5.2Y-3.4
X5.2Y-3.8
X5.2Y-4.65
X5.275Y-3.05
X5.275Y-3.125
X5.275Y-3.275
X5.275Y-3.35
X5.275Y-3.4
X5.275Y-4.65
X5.3Y-3.8
X5.3Y-3.85
X5.3Y-3.9
X5.3Y-3.95
X5.3Y-4.0
X5.35Y-3.05
X5.35Y-3.2
X5.35Y-3.35
X5.35Y-3.4
X5.35Y-4.65
X5.425Y-3.05
X5.425Y-3.125
X5.425Y-3.275
X5.425Y-3.35
X5.425Y-3.4
X5.425Y-3.8
X5.425Y-3.85
X5.425Y-3.9
X5.425Y-3.95
X5.425Y-4.0
X5.425Y-4.65
X5.5Y-3.05
X5.5Y-3.2
X5.5Y-3.35
X5.5Y-3.4
X5.5Y-3.8
X5.5Y-4.65
X5.575Y-3.05
X5.575Y-3.125
X5.575Y-3.275
X5.575Y-3.35
X5.575Y-3.4
X5.575Y-3.8
X5.575Y-3.85
X5.575Y-3.975
X5.575Y-4.65
X5.65Y-3.05
X5.65Y-3.2
X5.65Y-3.35
X5.65Y-3.4
X5.65Y-3.8
X5.65Y-4.65
X5.725Y-3.05
X5.725Y-3.125
X5.725Y-3.275
X5.725Y-3.35
X5.725Y-3.4
X5.725Y-3.8
X5.725Y-3.85
X5.725Y-3.975
X5.725Y-4.125
X5.725Y-4.425
X5.725Y-4.65
X5.8Y-3.05
X5.8Y-3.275
X5.8Y-3.35
X5.8Y-3.4
X5.8Y-3.8
X5.8Y-4.65
X5.875Y-3.05
X5.875Y-3.125
X5.875Y-3.275
X5.875Y-3.35
X5.875Y-3.425
X5.875Y-3.8
X5.875Y-3.85
X5.875Y-3.975
X5.875Y-4.65
X5.95Y-3.05
X5.95Y-3.275
X5.95Y-3.35
X5.95Y-3.425
X5.95Y-3.8
X5.95Y-4.65
X6.025Y-3.05
X6.025Y-3.125
X6.025Y-3.275
X6.025Y-3.35
X6.025Y-3.425
X6.025Y-3.8
X6.025Y-3.85
X6.025Y-3.975
X6.025Y-4.65
X6.1Y-3.05
X6.1Y-3.275
X6.1Y-3.35
X6.1Y-3.425
X6.1Y-3.8
X6.1Y-4.65
X6.175Y-3.05
X6.175Y-3.125
X6.175Y-3.275
X6.175Y-3.35
X6.175Y-3.425
X6.175Y-3.8
X6.175Y-3.85
X6.175Y-3.975
X6.175Y-4.65
X6.25Y-3.05
X6.25Y-3.275
X6.25Y-3.325
X6.25Y-3.775
X6.25Y-4.65
X6.3Y-4.4
X6.3Y-4.525
X6.325Y-3.05
X6.325Y-3.125
X6.325Y-3.275
X6.325Y-3.325
X6.325Y-3.775
X6.325Y-3.825
X6.325Y-3.975
X6.325Y-4.65
X6.4Y-3.05
X6.4Y-3.2
X6.4Y-3.275
X6.4Y-3.325
X6.4Y-3.775
X6.4Y-4.65
X6.45Y-4.4
X6.45Y-4.525
X6.475Y-3.05
X6.475Y-3.125
X6.475Y-3.275
X6.475Y-3.325
X6.475Y-3.775
X6.475Y-3.825
X6.475Y-3.975
X6.475Y-4.65
X6.55Y-3.05
X6.55Y-3.275
X6.55Y-3.325
X6.55Y-3.775
X6.55Y-4.65
X6.625Y-3.05
X6.625Y-3.125
X6.625Y-3.275
X6.625Y-3.325
X6.625Y-3.775
X6.625Y-3.825
X6.625Y-4.65
X6.7Y-3.05
X6.7Y-3.275
X6.7Y-3.325
X6.7Y-3.775
X6.7Y-3.825
X6.7Y-3.975
X6.7Y-4.65
X6.76Y-3.38
X6.76Y-3.72
X6.775Y-3.05
X6.775Y-3.125
X6.775Y-3.275
X6.775Y-3.325
X6.775Y-3.775
X6.775Y-3.825
X6.775Y-4.65
X6.85Y-3.05
X6.85Y-3.125
X6.85Y-3.2
X6.85Y-3.275
X6.85Y-3.325
X6.85Y-3.38
X6.85Y-3.72
X6.85Y-3.775
X6.85Y-3.825
X6.85Y-3.9
X6.85Y-3.975
X6.85Y-4.05
X6.85Y-4.125
X6.85Y-4.2
X6.85Y-4.275
X6.85Y-4.35
X6.85Y-4.425
X6.85Y-4.5
X6.85Y-4.575
X6.85Y-4.65
T2
X4.82Y-4.29
X5.11Y-4.23
X5.54Y-4.305
X5.975Y-4.315
X6.1575Y-4.3525
X6.67Y-4.315
T4
X4.29Y-4.45
X4.39Y-4.45
X4.49Y-4.45
X4.59Y-4.45
X4.69Y-4.45
T3
G00X6.1928Y-4.4661
M15
G01X6.1928Y-4.5251
M16
G05
G00X6.3306Y-4.22
M15
G01X6.4094Y-4.22
M16
G05
G00X6.3444Y-4.4562
M15
G01X6.3956Y-4.4562
M16
G05
G00X6.5472Y-4.4661
M15
G01X6.5472Y-4.5251
M16
G05
T0
M30
